<?xml version="1.0" encoding="utf-8"?>
<!-- Generator: Adobe Illustrator 23.0.1, SVG Export Plug-In . SVG Version: 6.00 Build 0)  -->
<svg version="1.1" id="Layer_4" xmlns="http://www.w3.org/2000/svg" xmlns:xlink="http://www.w3.org/1999/xlink" x="0px" y="0px"
	 viewBox="0 0 595.28 841.89" style="enable-background:new 0 0 595.28 841.89;" xml:space="preserve">
<style type="text/css">
	.st0{fill:#FFFEFF;}
	.st1{font-family:'Helvetica-Bold';}
	.st2{font-size:72.6901px;}
	.st3{opacity:0.87;}
	.st4{clip-path:url(#SVGID_2_);fill:none;stroke:#FFFEFF;stroke-width:0.5;stroke-miterlimit:10;}
	.st5{clip-path:url(#SVGID_2_);fill:none;stroke:#FFFEFF;stroke-width:0.5;stroke-miterlimit:10;stroke-dasharray:2.038,2.038;}
	.st6{fill:none;stroke:#224087;stroke-width:0.5;stroke-miterlimit:10;}
	.st7{fill:none;stroke:#224087;stroke-width:0.5;stroke-miterlimit:10;stroke-dasharray:2.326,2.326;}
	.st8{fill:none;}
	.st9{fill:none;stroke:#224087;stroke-width:0.5;stroke-miterlimit:10;stroke-dasharray:1.254,1.254;}
	.st10{clip-path:url(#SVGID_4_);fill:none;stroke:#FFFEFF;stroke-width:0.5;stroke-miterlimit:10;}
	.st11{clip-path:url(#SVGID_4_);fill:none;stroke:#FFFEFF;stroke-width:0.5;stroke-miterlimit:10;stroke-dasharray:1.877,1.877;}
	.st12{fill:none;stroke:#224087;stroke-width:0.5;stroke-miterlimit:10;stroke-dasharray:1.8,1.8;}
	.st13{fill:none;stroke:#FFFEFF;stroke-width:0.5;stroke-miterlimit:10;}
	.st14{fill:none;stroke:#FFFEFF;stroke-width:0.5;stroke-miterlimit:10;stroke-dasharray:2.003,2.003;}
	.st15{opacity:0.6;fill:none;stroke:#FFFEFF;stroke-width:0.5;stroke-miterlimit:10;stroke-dasharray:2.124,2.124;}
	.st16{fill:none;stroke:#224087;stroke-width:0.5;stroke-miterlimit:10;stroke-dasharray:1.776,1.776;}
	.st17{opacity:0.6;}
	.st18{clip-path:url(#SVGID_6_);fill:none;stroke:#FFFEFF;stroke-width:0.5;stroke-miterlimit:10;stroke-dasharray:2.009,2.009;}
	.st19{clip-path:url(#SVGID_6_);fill:none;stroke:#FFFEFF;stroke-width:0.5;stroke-miterlimit:10;}
	.st20{fill:none;stroke:#FFFEFF;stroke-width:0.5;stroke-miterlimit:10;stroke-dasharray:2.05,2.05;}
</style>
<g>
	<text transform="matrix(1 0 0 1 92.2564 136.7392)" class="st0 st1 st2">C</text>
	<g class="st3">
		<g>
			<defs>
				<rect id="SVGID_1_" x="78.12" y="134.82" width="26.04" height="20.58"/>
			</defs>
			<clipPath id="SVGID_2_">
				<use xlink:href="#SVGID_1_"  style="overflow:visible;"/>
			</clipPath>
			<path class="st4" d="M103.98,134.99c-0.22,0.25-0.44,0.49-0.67,0.74"/>
			<path class="st5" d="M101.93,137.23c-0.1,0.11-0.2,0.22-0.31,0.33c-3.58,3.81-7.65,7.77-12.28,11.79
				c-7.66,6.65-9.62,5.97-10.2,5.57c-0.52-0.36-0.73-1.06-0.78-1.85"/>
			<path class="st4" d="M78.39,152.04c0.03-0.34,0.07-0.67,0.12-0.99"/>
		</g>
	</g>
	<path class="st6" d="M109.79,128.14c-0.21,0.26-0.41,0.52-0.62,0.78"/>
	<path class="st7" d="M107.69,130.71c-0.73,0.87-1.48,1.76-2.27,2.65"/>
	<path class="st6" d="M104.65,134.24c-0.22,0.25-0.44,0.5-0.67,0.75"/>
	<rect x="103.79" y="127.98" class="st8" width="6.19" height="7.17"/>
	<path class="st6" d="M113.29,123.57c-0.19,0.27-0.39,0.53-0.59,0.8"/>
	<path class="st9" d="M111.94,125.37c-0.37,0.49-0.76,0.99-1.15,1.49"/>
	<path class="st6" d="M110.41,127.36c-0.2,0.26-0.41,0.52-0.62,0.78"/>
	<rect x="109.59" y="123.42" class="st8" width="3.9" height="4.88"/>
	<g class="st3">
		<g>
			<defs>
				<rect id="SVGID_3_" x="113.09" y="96.81" width="14.04" height="26.9"/>
			</defs>
			<clipPath id="SVGID_4_">
				<use xlink:href="#SVGID_3_"  style="overflow:visible;"/>
			</clipPath>
			<path class="st10" d="M126.88,96.88c-0.09,0.33-0.18,0.65-0.27,0.97"/>
			<path class="st11" d="M126.09,99.65c-0.2,0.65-0.39,1.25-0.57,1.81c-1,3.08-1.75,4.86-1.75,4.86s-2.67,6.3-9.35,15.68"/>
			<path class="st10" d="M113.88,122.76c-0.19,0.27-0.39,0.54-0.59,0.81"/>
		</g>
	</g>
	<path class="st6" d="M129.2,86.13c-0.05,0.33-0.11,0.66-0.16,0.99"/>
	<path class="st12" d="M128.72,88.89c-0.42,2.21-0.88,4.28-1.35,6.15"/>
	<path class="st6" d="M127.14,95.91c-0.09,0.33-0.17,0.65-0.26,0.97"/>
	<path class="st13" d="M112.38,86.65c0.01-0.33,0.01-0.66,0.02-1"/>
	<path class="st14" d="M120.1,55.48c0.63-0.57,1.36-1.03,2.22-1.3c0.36-0.11,1.88-0.6,3.37,0c3.02,1.22,3.7,6,3.96,7.82
		c1.1,7.8,0.76,15.46-0.16,22.15"/>
	<path class="st15" d="M112.44,83.65c0.04-1.73,0.08-3.51,0.11-5.33c0,0,0.14-6.84,4.44-17.76c0.6-1.51,1.51-3.65,3.11-5.09"/>
	<path class="st6" d="M129.35,85.14c-0.05,0.33-0.1,0.66-0.15,0.99"/>
	<rect x="112.13" y="53.63" class="st8" width="18.47" height="33.03"/>
	<path class="st13" d="M110.33,130.25c0.06-0.32,0.11-0.65,0.16-0.98"/>
	<path class="st15" d="M111.1,123.97c0.33-4.11,0.46-8.86,0.66-14.73c0.03-0.81,0.09-6.53,0.18-10.72"/>
	<path class="st13" d="M111.97,97.46c0.01-0.35,0.02-0.69,0.03-1"/>
	<rect x="110.09" y="96.46" class="st8" width="2.16" height="33.84"/>
	<path class="st6" d="M108.45,137.33c0.12-0.31,0.23-0.63,0.33-0.94"/>
	<path class="st16" d="M109.32,134.69c0.24-0.85,0.46-1.71,0.65-2.58"/>
	<path class="st6" d="M110.15,131.24c0.06-0.32,0.12-0.65,0.18-0.98"/>
	<rect x="108.22" y="130.21" class="st8" width="2.36" height="7.2"/>
	<g class="st17">
		<g>
			<defs>
				<rect id="SVGID_5_" x="68.9" y="137.24" width="39.79" height="26.05"/>
			</defs>
			<clipPath id="SVGID_6_">
				<use xlink:href="#SVGID_5_"  style="overflow:visible;"/>
			</clipPath>
			<path class="st18" d="M92.32,140.8c-4.4-0.14-8.82,0.45-13.15,2.63c-1.55,0.78-10.07,5.05-10.03,11.57
				c0,0.25,0.07,3.62,2.57,5.91c5.27,4.85,16.03,0.02,17.57-0.67c10.7-4.81,15.51-14.89,17.77-19.63c0.23-0.47,0.44-0.94,0.64-1.41"
				/>
			<path class="st19" d="M108.09,138.26c0.12-0.31,0.24-0.62,0.36-0.93"/>
		</g>
	</g>
	<path class="st13" d="M159.62,133.8c-0.2,0.25-0.4,0.51-0.62,0.78"/>
	<path class="st20" d="M97.35,141.23c2.1,0.28,4.18,0.66,6.24,1.04c9.63,1.77,9.42,3.69,17.78,4.92c5.59,0.82,14.03,2.06,23.42-1.87
		c5.81-2.43,10.02-6.03,12.88-9.18"/>
	<path class="st13" d="M95.95,141.08c-0.33-0.04-1.63-0.18-1.96-0.22"/>
	<rect x="95.3" y="133.65" class="st8" width="64.52" height="14.65"/>
	<g class="st17">
		<g>
			<path class="st20" d="M167.34,113.22c-0.02,0.31-0.04,0.64-0.08,0.99"/>
			<path class="st20" d="M167.06,116.05c-0.51,3.69-1.8,8.94-5.1,14.37c-0.29,0.48-0.68,1.1-1.19,1.83"/>
		</g>
	</g>
</g>
</svg>
